<svg xmlns="http://www.w3.org/2000/svg" version="1.1" xmlns:xlink="http://www.w3.org/1999/xlink" xmlns:svgjs="http://svgjs.dev/svgjs" width="2000" height="2250" viewBox="0 0 2000 2250"><g transform="matrix(1,0,0,1,0,0)"><svg viewBox="0 0 320 360" data-background-color="#ffffff" preserveAspectRatio="xMidYMid meet" height="2250" width="2000" xmlns="http://www.w3.org/2000/svg" xmlns:xlink="http://www.w3.org/1999/xlink"><g id="tight-bounds" transform="matrix(1,0,0,1,0,0)"><svg viewBox="0 0 320 360" height="360" width="320"><g><svg></svg></g><g><svg viewBox="0 0 320 360" height="360" width="320"><g><path d="M160 42.18c72.417 0 131.943 56.114 137.63 127.014h22.37c-1.137-17.82-5.308-34.882-12.133-51.185-7.962-18.957-19.716-36.398-34.502-50.805-14.787-14.787-31.848-26.161-50.806-34.503-20.095-8.341-40.948-12.891-62.559-12.891-21.611 0-42.464 4.171-62.559 12.512-18.957 7.962-36.398 19.716-50.806 34.503-14.787 14.787-26.161 31.848-34.502 50.805-6.825 16.303-10.995 33.744-12.133 51.185h22.37c5.687-70.521 65.213-126.635 137.63-126.635zM160 318.199c-72.417 0-131.943-56.114-137.63-127.014h-22.37c1.137 17.82 5.308 34.882 12.133 51.185 7.962 18.957 19.716 36.398 34.502 50.805 14.787 14.787 31.848 26.161 50.806 34.503 19.716 8.341 40.569 12.512 62.559 12.512 21.991 0 42.464-4.171 62.559-12.512 18.957-7.962 36.398-19.716 50.806-34.503 14.787-14.787 26.161-31.848 34.502-50.805 6.825-16.303 10.995-33.744 12.133-51.185h-22.37c-5.687 70.9-65.213 127.014-137.63 127.014z" fill="#000000" fill-rule="nonzero" stroke="none" stroke-width="1" stroke-linecap="butt" stroke-linejoin="miter" stroke-miterlimit="10" stroke-dasharray="" stroke-dashoffset="0" font-family="none" font-weight="none" font-size="none" text-anchor="none" style="mix-blend-mode: normal" data-fill-palette-color="tertiary"></path></g><g transform="matrix(1,0,0,1,74.96691684771874,90)"><svg viewBox="0 0 170.06616630456253 180" height="180" width="170.06616630456253"><g><svg viewBox="0 0 170.06616630456253 180" height="180" width="170.06616630456253"><g><svg viewBox="0 0 170.06616630456253 180" height="180" width="170.06616630456253"><g id="textblocktransform"><svg viewBox="0 0 170.06616630456253 180" height="180" width="170.06616630456253" id="textblock"><g><svg viewBox="0 0 170.06616630456253 180" height="180" width="170.06616630456253"><g transform="matrix(1,0,0,1,0,0)"><svg width="170.06616630456253" viewBox="2.2699519230769227 -35.8 34.58004807692308 36.6" height="180" data-palette-color="#000000"><path d="M18.2 0.8L18.2 0.8Q13.1 0.8 9.4-1.4 5.7-3.6 3.88-7.58 2.05-11.55 2.3-16.85L2.3-16.85Q2.5-20.35 3.73-23.7 4.95-27.05 7.23-29.8 9.5-32.55 12.85-34.18 16.2-35.8 20.55-35.8L20.55-35.8Q22.15-35.8 23.95-35.5 25.75-35.2 27.45-34.6 29.15-34 30.45-33.2L30.45-33.2 30.4-35.45 33.5-35.45 32.9-23.95 30.6-23.95Q30.45-26.95 29.15-29.03 27.85-31.1 25.7-32.18 23.55-33.25 20.85-33.25L20.85-33.25Q18.2-33.25 15.93-32.08 13.65-30.9 11.95-28.83 10.25-26.75 9.22-23.95 8.2-21.15 8.05-17.95L8.05-17.95Q7.8-13.35 9.15-9.78 10.5-6.2 13.2-4.15 15.9-2.1 19.65-2.1L19.65-2.1Q20.9-2.1 22.35-2.33 23.8-2.55 25.23-3.03 26.65-3.5 27.9-4.25L27.9-4.25 28.15-9.7Q28.25-11 28.33-12.25 28.4-13.5 28.45-14.55L28.45-14.55Q27.65-14.5 26.65-14.45 25.65-14.4 24.9-14.35L24.9-14.35 25-17.1 36.85-17.1 36.7-14.9Q35.5-14.9 34.77-14.38 34.05-13.85 33.68-13.03 33.3-12.2 33.15-11.25 33-10.3 32.95-9.5L32.95-9.5 32.55-1.75 31.3-1.75Q30.35-1.75 28.98-1.45 27.6-1.15 25.9-0.55L25.9-0.55Q24.3 0.05 22.23 0.43 20.15 0.8 18.2 0.8Z" opacity="1" transform="matrix(1,0,0,1,0,0)" fill="#000000" class="wordmark-text-0" data-fill-palette-color="primary" id="text-0"></path></svg></g></svg></g></svg></g></svg></g><g></g></svg></g></svg></g></svg></g><defs></defs></svg><rect width="320" height="360" fill="none" stroke="none" visibility="hidden"></rect></g></svg></g></svg>